<svg xmlns="http://www.w3.org/2000/svg" width="256" height="256" viewBox="0 0 256 256">
<g>
<path d="M 0.00 0.00 L 256.00 0.00 L 256.00 256.00 L 0.00 256.00 ZM 92.43 197.11 C94.67,198.13 96.72,198.96 97.00,198.96 C98.33,198.98 99.98,197.19 100.92,194.70 C101.91,192.11 102.12,192.03 104.24,193.39 C105.48,194.19 108.86,194.85 111.75,194.87 C114.64,194.88 117.53,195.21 118.17,195.61 C119.75,196.58 135.99,196.83 138.50,195.92 C139.60,195.52 143.20,194.65 146.50,193.99 C149.80,193.33 155.03,191.71 158.13,190.39 C161.22,189.08 164.93,188.00 166.38,188.00 C168.11,188.00 169.00,187.46 169.00,186.41 C169.00,185.54 170.27,184.35 171.82,183.76 C173.38,183.17 175.22,181.40 175.92,179.82 C176.66,178.14 178.61,176.35 180.60,175.52 C183.21,174.43 184.00,173.51 184.00,171.55 C184.00,168.76 184.31,168.57 186.82,169.87 C188.84,170.92 202.85,169.37 204.62,167.90 C206.07,166.70 204.73,161.85 202.42,159.94 C201.64,159.29 201.00,157.98 201.00,157.02 C201.00,156.07 199.86,154.07 198.48,152.57 L 195.95 149.85 L 198.48 146.85 C199.86,145.20 201.23,142.64 201.52,141.17 C201.80,139.70 202.47,136.58 203.02,134.24 C204.60,127.37 204.27,109.83 202.51,107.32 C201.69,106.15 200.37,102.40 199.57,98.98 C198.77,95.55 197.11,91.69 195.88,90.37 L 193.64 87.98 L 195.82 85.03 C197.02,83.41 198.00,81.65 198.00,81.12 C198.00,80.59 198.73,78.89 199.61,77.33 C200.96,74.96 201.04,73.81 200.08,70.25 C198.86,65.78 198.12,65.33 194.87,67.07 C193.78,67.65 189.79,68.46 186.01,68.87 C179.47,69.57 179.09,69.49 178.09,67.30 C177.51,66.04 176.22,65.00 175.22,65.00 C174.21,65.00 171.90,63.46 170.08,61.58 C168.25,59.70 165.61,57.87 164.20,57.51 C162.79,57.16 158.69,55.49 155.07,53.79 C148.59,50.75 148.26,50.71 130.50,50.44 C113.14,50.18 106.56,50.99 102.52,53.86 C101.96,54.26 99.03,55.42 96.00,56.43 C92.97,57.45 89.38,59.25 88.00,60.44 C84.19,63.74 77.54,68.00 76.20,68.00 C75.16,68.00 74.54,69.95 74.86,72.19 C74.92,72.57 73.85,73.76 72.48,74.84 C71.12,75.91 70.00,77.25 70.00,77.82 C70.00,78.39 68.87,79.74 67.49,80.83 C63.32,84.11 58.00,92.75 57.05,97.77 C56.26,102.02 55.83,106.99 54.48,127.68 C54.23,131.44 54.69,136.14 55.65,139.68 C56.52,142.88 57.55,147.08 57.94,149.01 C58.33,150.95 60.07,154.50 61.82,156.91 C63.57,159.33 65.00,161.95 65.00,162.74 C65.00,163.52 66.57,165.57 68.50,167.27 C70.43,168.97 72.00,170.95 72.00,171.66 C72.00,173.36 76.62,176.36 77.96,175.53 C78.53,175.17 79.00,173.74 79.00,172.33 C79.00,170.53 79.42,169.95 80.44,170.34 C81.22,170.64 82.08,170.35 82.33,169.69 C82.58,169.04 82.72,171.73 82.64,175.67 C82.56,179.61 82.16,183.18 81.75,183.59 C78.80,186.53 84.20,193.37 92.43,197.11 ZM 137.93 140.85 C134.94,142.44 130.70,143.99 128.50,144.28 C122.68,145.06 114.35,142.97 112.45,140.25 C111.59,139.01 110.00,138.00 108.93,138.00 C107.61,138.00 106.44,136.76 105.37,134.25 C104.50,132.19 103.12,129.11 102.31,127.40 C101.32,125.30 101.08,123.06 101.56,120.40 C102.38,115.95 107.90,103.00 108.99,103.00 C109.38,103.00 110.84,101.99 112.22,100.75 C118.73,94.93 128.46,93.27 137.50,96.43 C143.40,98.49 149.34,104.56 151.54,110.75 C152.56,113.64 153.74,116.00 154.16,116.00 C154.57,116.00 153.58,118.81 151.96,122.25 C150.33,125.69 149.00,129.21 149.00,130.07 C149.00,132.63 143.74,137.76 137.93,140.85 ZM 82.88 130.25 C82.92,141.11 82.85,149.99 82.73,149.97 C82.60,149.95 81.29,149.03 79.80,147.92 C77.78,146.41 76.96,144.74 76.50,141.21 C76.17,138.62 75.18,134.05 74.29,131.04 C72.95,126.50 72.88,124.65 73.84,119.98 C74.48,116.90 75.00,112.78 75.00,110.82 C75.00,108.78 75.85,106.19 77.00,104.73 C78.10,103.33 79.01,101.36 79.02,100.34 C79.04,97.56 80.26,96.28 82.70,96.48 C83.92,96.58 84.71,96.33 84.46,95.94 C84.21,95.54 84.67,93.65 85.47,91.73 C86.27,89.82 86.64,87.98 86.31,87.64 C85.97,87.30 87.34,86.34 89.35,85.50 C91.36,84.66 93.00,83.64 93.00,83.22 C93.00,81.98 103.71,74.02 107.53,72.42 C109.50,71.60 113.45,70.49 116.30,69.95 C119.16,69.41 122.99,68.27 124.80,67.41 C127.88,65.96 128.55,66.01 134.80,68.09 C138.49,69.32 142.55,70.79 143.83,71.37 C145.11,71.95 147.20,72.34 148.48,72.23 C149.98,72.11 151.37,72.91 152.42,74.52 C153.31,75.88 154.87,77.00 155.87,77.00 C158.39,77.00 161.41,80.61 161.57,83.82 C161.70,86.33 161.97,86.48 165.85,86.18 C170.56,85.82 171.01,86.70 167.69,89.83 C164.99,92.35 163.00,92.64 163.00,90.50 C163.00,89.68 162.50,89.00 161.89,89.00 C161.29,89.00 159.90,87.88 158.82,86.50 C157.74,85.12 156.19,84.00 155.38,84.00 C154.57,84.00 152.71,82.80 151.25,81.34 C149.79,79.88 146.77,78.14 144.54,77.49 C140.50,76.29 122.51,76.34 114.50,77.56 C108.36,78.50 101.00,82.07 101.00,84.11 C101.00,85.92 95.70,90.37 94.72,89.39 C93.46,88.13 90.11,91.22 89.47,94.24 C89.08,96.03 88.41,97.95 87.97,98.50 C87.53,99.05 86.18,101.98 84.98,105.00 C82.99,110.03 82.81,112.19 82.88,130.25 ZM 140.44 175.63 C132.08,176.46 119.14,176.40 116.50,175.51 C114.84,174.95 111.59,173.50 109.26,172.27 C106.03,170.58 104.44,170.26 102.61,170.96 L 100.20 171.88 L 100.17 164.44 C100.14,158.81 100.47,157.00 101.50,157.00 C102.25,157.00 103.17,157.95 103.53,159.10 C104.06,160.78 104.76,161.10 106.96,160.66 C108.80,160.29 111.24,160.92 114.31,162.55 C120.71,165.96 129.83,165.94 138.00,162.50 C141.27,161.12 144.75,160.00 145.75,160.00 C146.74,160.00 148.56,159.30 149.78,158.44 C151.00,157.59 152.47,157.17 153.05,157.53 C154.29,158.30 157.19,156.12 156.48,154.96 C156.20,154.52 157.78,152.06 159.99,149.51 C162.19,146.96 164.00,144.50 164.00,144.05 C164.00,143.59 164.62,142.97 165.38,142.68 C166.23,142.36 167.98,143.84 169.88,146.49 C173.23,151.14 173.87,154.00 171.57,154.00 C170.79,154.00 169.07,155.91 167.75,158.25 C166.43,160.59 164.83,162.39 164.20,162.26 C163.57,162.12 162.05,163.36 160.84,165.01 C159.62,166.65 157.88,168.00 156.96,168.00 C156.05,168.00 154.29,168.88 153.05,169.95 C151.52,171.29 149.93,171.74 148.09,171.37 C145.95,170.94 145.17,171.30 144.38,173.08 C143.73,174.54 142.34,175.43 140.44,175.63 ZM 183.67 112.25 C184.32,114.22 184.46,117.86 184.02,121.50 C183.62,124.80 183.23,126.79 183.15,125.92 C183.07,125.04 181.68,123.15 180.06,121.71 C177.38,119.32 177.21,118.79 178.14,115.79 C178.70,113.98 179.40,111.71 179.70,110.75 C180.55,107.97 182.50,108.71 183.67,112.25 ZM 105.02 199.25 C105.03,201.07 105.22,201.21 106.00,200.00 C107.25,198.06 107.25,197.00 106.00,197.00 C105.45,197.00 105.01,198.01 105.02,199.25 Z" fill="rgb(254,254,254)"/>
<path d="M 200.60 133.63 C199.69,139.04 198.55,143.85 198.07,144.33 C197.15,145.25 196.86,144.85 190.64,134.37 C187.32,128.78 187.01,127.63 187.17,121.37 L 187.33 114.50 L 187.92 122.00 C188.37,127.72 189.13,130.45 191.12,133.51 C197.41,143.20 199.41,141.02 199.40,124.50 C199.39,118.45 199.06,111.81 198.65,109.75 C198.23,107.65 198.30,106.00 198.81,106.00 C199.30,106.00 200.28,110.01 200.99,114.91 C202.09,122.63 202.04,125.12 200.60,133.63 ZM 192.87 83.41 C187.65,92.43 185.00,95.81 185.00,93.45 C185.00,92.64 189.33,84.79 190.50,83.47 C191.05,82.86 192.40,80.68 193.50,78.64 C195.91,74.16 194.88,73.04 188.32,73.02 C184.99,73.00 183.73,73.53 182.07,75.63 C180.93,77.08 179.99,78.77 179.97,79.38 C179.96,80.00 178.61,82.07 176.97,84.00 C174.35,87.08 174.50,86.58 178.25,79.77 L 182.50 72.04 L 190.75 72.02 C195.29,72.01 199.00,72.18 199.00,72.41 C199.00,72.63 196.24,77.58 192.87,83.41 ZM 75.79 175.26 C76.75,175.66 77.63,175.77 78.05,175.35 C78.64,174.76 77.22,172.51 74.24,169.32 C68.61,163.28 65.05,157.70 67.41,158.60 C68.24,158.92 69.22,160.16 69.58,161.34 C70.54,164.51 73.04,167.00 75.25,167.00 C77.06,167.00 77.17,166.37 76.85,158.00 C76.52,149.48 77.03,147.03 78.39,150.58 C78.73,151.45 79.00,156.13 79.00,160.97 C79.00,167.71 79.34,169.92 80.44,170.34 C79.42,169.95 79.00,170.53 79.00,172.33 C79.00,173.74 78.53,175.17 77.96,175.53 C77.50,175.81 76.68,175.65 75.79,175.26 ZM 99.00 191.94 C99.00,193.56 98.66,195.07 98.25,195.30 C97.84,195.52 94.69,194.42 91.25,192.85 C85.87,190.39 85.00,189.62 85.00,187.34 L 85.00 184.68 L 88.13 188.34 C91.47,192.26 93.95,192.91 96.36,190.50 C98.51,188.35 99.00,188.62 99.00,191.94 ZM 173.40 76.77 C171.46,80.19 169.71,83.00 169.50,83.00 C168.18,83.00 168.12,80.74 169.41,79.45 C171.97,76.89 173.58,70.16 172.18,67.91 C170.53,65.28 172.19,65.51 174.78,68.27 L 176.91 70.53 ZM 202.52 166.98 C201.20,169.11 199.24,167.87 198.70,164.55 C198.39,162.66 196.99,159.40 195.57,157.32 C192.92,153.41 192.44,152.00 193.77,152.00 C195.08,152.00 203.19,165.89 202.52,166.98 ZM 59.13 133.75 C59.79,138.29 60.09,142.24 59.80,142.53 C58.61,143.73 57.01,130.93 57.20,121.58 C57.34,113.97 57.46,113.22 57.66,118.50 C57.81,122.35 58.47,129.21 59.13,133.75 ZM 86.98 112.42 C86.98,114.11 86.49,116.18 85.91,117.00 C85.11,118.12 84.96,117.43 85.32,114.25 C85.77,110.31 91.24,97.00 92.42,97.00 C93.09,97.00 92.53,98.42 89.48,104.43 C88.12,107.13 86.99,110.73 86.98,112.42 ZM 132.45 161.10 C129.93,162.08 124.05,162.07 121.50,161.08 C119.08,160.13 129.10,158.95 132.35,159.80 C134.34,160.32 134.34,160.36 132.45,161.10 ZM 108.72 189.25 C111.43,191.32 111.85,191.98 110.41,191.94 C105.97,191.79 104.00,190.18 104.12,186.78 C104.18,184.98 104.43,184.18 104.67,185.00 C104.91,185.82 106.73,187.74 108.72,189.25 ZM 192.23 98.79 C191.28,99.76 189.69,101.66 188.69,103.02 C187.70,104.38 188.23,103.03 189.88,100.02 C193.33,93.71 194.41,93.02 196.05,96.09 C197.07,98.00 197.01,98.22 195.59,97.67 C194.65,97.31 193.22,97.79 192.23,98.79 ZM 146.43 54.04 C148.00,54.67 147.40,54.89 143.92,54.94 C141.40,54.97 139.04,54.70 138.68,54.34 C138.32,53.98 136.33,53.33 134.26,52.89 C131.72,52.35 132.75,52.27 137.43,52.64 C141.24,52.95 145.29,53.57 146.43,54.04 ZM 143.45 157.93 C142.93,158.44 141.15,159.19 139.50,159.60 C136.78,160.26 136.63,160.17 137.87,158.67 C138.63,157.75 140.40,157.00 141.82,157.00 C143.42,157.00 144.04,157.35 143.45,157.93 Z" fill="rgb(228,100,59)"/>
<path d="M 86.98 112.42 C86.99,110.73 88.12,107.13 89.48,104.43 C92.03,99.40 92.84,97.58 92.64,97.13 C96.97,91.16 102.86,86.18 109.50,83.00 C115.58,80.09 117.77,79.59 126.16,79.21 C134.18,78.85 136.91,79.14 142.32,80.94 C149.93,83.47 158.14,89.07 162.84,94.93 C165.40,98.13 166.48,98.85 167.49,98.01 C168.21,97.41 171.88,91.32 175.65,84.46 L 182.50 72.01 L 190.75 72.00 C195.09,72.00 198.68,72.17 198.98,72.38 C198.68,72.17 195.09,72.01 190.75,72.02 L 182.50 72.04 L 178.25 79.77 C174.50,86.58 174.35,87.08 176.97,84.00 C178.61,82.07 179.96,80.00 179.97,79.38 C179.99,78.77 180.93,77.08 182.07,75.63 C183.73,73.53 184.99,73.00 188.32,73.02 C194.88,73.04 195.91,74.16 193.50,78.64 C192.40,80.68 191.05,82.86 190.50,83.47 C189.33,84.79 185.00,92.64 185.00,93.45 C185.00,95.10 186.30,93.93 188.88,89.97 C186.09,94.63 183.21,99.37 180.93,103.00 C172.64,116.23 172.37,116.82 173.78,118.83 C174.43,119.75 176.65,123.33 178.73,126.80 C184.77,136.89 186.40,139.55 188.09,142.10 C190.50,145.74 193.80,150.89 196.63,155.43 C195.32,153.44 194.19,152.00 193.77,152.00 C192.44,152.00 192.92,153.41 195.57,157.32 C196.99,159.40 198.39,162.66 198.70,164.55 C198.95,166.08 199.50,167.17 200.15,167.69 C198.70,167.79 196.58,167.68 193.63,167.42 C187.46,166.86 186.02,166.38 185.11,164.62 C184.51,163.45 182.77,160.42 181.26,157.89 C179.74,155.35 177.15,150.92 175.50,148.04 C170.43,139.19 168.49,136.52 166.96,136.27 C166.13,136.13 163.65,138.77 161.20,142.42 C157.02,148.64 150.61,154.06 143.67,157.49 C143.61,157.18 142.97,157.00 141.82,157.00 C140.40,157.00 138.63,157.75 137.87,158.67 C137.12,159.58 136.88,159.97 137.41,159.99 C136.58,160.25 135.74,160.47 134.90,160.66 C133.98,160.87 133.08,161.04 132.20,161.19 C132.28,161.16 132.37,161.13 132.45,161.10 C134.34,160.36 134.34,160.32 132.35,159.80 C129.10,158.95 119.08,160.13 121.50,161.08 C121.61,161.12 121.73,161.16 121.85,161.20 C117.65,160.47 113.17,158.80 107.48,156.05 C102.88,153.82 98.91,152.00 98.65,152.00 C98.40,152.00 98.35,161.66 98.56,173.46 C98.66,179.63 98.67,185.26 98.60,189.26 C98.23,188.86 97.55,189.31 96.36,190.50 C93.95,192.91 91.47,192.26 88.13,188.34 L 85.00 184.68 L 85.00 187.34 C85.00,189.62 85.86,190.39 91.22,192.84 L 84.93 189.96 L 85.22 150.23 L 85.45 117.48 C85.57,117.43 85.72,117.26 85.91,117.00 C86.49,116.18 86.98,114.11 86.98,112.42 ZM 117.99 147.13 C122.25,148.52 134.13,147.40 138.54,145.18 C140.76,144.07 144.66,140.93 147.20,138.22 C156.65,128.11 159.23,117.56 154.68,107.62 C151.75,101.21 148.73,98.26 141.20,94.41 C136.23,91.88 135.33,91.75 127.03,92.34 C117.47,93.02 113.31,94.71 107.20,100.41 C100.83,106.35 99.00,110.84 99.00,120.52 C99.00,130.14 99.99,132.81 105.98,139.33 C109.48,143.14 113.19,145.55 117.99,147.13 ZM 59.13 133.75 C58.47,129.21 57.81,122.35 57.66,118.50 C57.58,116.37 57.51,115.22 57.45,115.11 C57.67,112.57 58.01,110.27 58.48,108.40 C60.69,99.53 64.58,90.28 67.61,86.68 C68.93,85.12 70.00,83.31 70.00,82.65 C70.00,81.25 81.79,69.61 87.16,65.70 C93.40,61.16 104.28,56.19 112.06,54.34 C117.83,52.96 125.78,52.36 132.91,52.50 C132.96,52.58 133.41,52.71 134.26,52.89 C136.33,53.33 138.32,53.98 138.68,54.34 C139.04,54.70 141.40,54.97 143.92,54.94 C146.97,54.89 147.81,54.72 146.91,54.25 C147.31,54.39 147.67,54.53 148.00,54.68 C150.48,55.82 154.12,57.27 156.10,57.90 C158.07,58.54 161.72,60.34 164.20,61.91 C166.68,63.49 169.61,65.06 170.70,65.40 C171.11,65.54 171.64,65.81 172.19,66.16 C171.38,65.82 171.22,66.38 172.18,67.91 C173.58,70.16 171.97,76.89 169.41,79.45 C168.69,80.17 168.39,81.19 168.50,81.95 L 165.64 79.17 C158.08,71.82 141.14,65.18 132.47,66.16 C130.81,66.35 130.37,66.53 131.63,67.07 C128.18,66.05 127.26,66.25 124.80,67.41 C124.29,67.66 123.62,67.92 122.86,68.19 C123.62,67.91 124.27,67.63 124.72,67.37 C127.36,65.92 127.12,65.87 120.09,66.50 C112.03,67.21 105.39,69.44 99.58,73.38 C97.53,74.77 95.10,76.19 94.17,76.53 C90.38,77.91 78.85,92.59 75.31,100.53 C72.10,107.72 71.71,109.60 71.25,119.79 C70.81,129.58 71.04,132.03 72.99,138.29 C74.22,142.25 76.08,146.90 77.12,148.62 C77.20,148.75 77.27,148.88 77.35,149.02 C76.79,149.22 76.62,152.21 76.85,158.00 C77.17,166.37 77.06,167.00 75.25,167.00 C73.04,167.00 70.54,164.51 69.58,161.34 C69.22,160.16 68.24,158.92 67.41,158.60 C67.03,158.46 66.80,158.48 66.71,158.65 C63.94,153.73 61.34,148.02 59.44,142.50 L 59.44 142.49 C59.57,142.63 59.69,142.65 59.80,142.53 C60.09,142.24 59.79,138.29 59.13,133.75 ZM 108.72 189.25 C106.73,187.74 104.91,185.82 104.67,185.00 C104.43,184.18 104.18,184.98 104.12,186.78 C104.06,188.51 104.53,189.77 105.60,190.62 C104.15,189.86 104.00,188.65 104.00,183.19 C104.00,179.42 104.25,176.09 104.55,175.79 C104.85,175.49 107.89,176.15 111.30,177.25 C119.51,179.92 136.04,180.13 144.11,177.66 C151.11,175.52 159.46,170.53 166.98,164.01 C170.17,161.26 173.00,159.00 173.28,159.00 C174.23,159.00 180.00,168.67 180.00,170.26 C180.00,171.79 172.94,178.28 166.25,182.89 C160.27,187.02 144.47,192.80 137.29,193.48 C133.56,193.83 129.38,194.28 128.00,194.48 C125.85,194.78 115.76,193.27 109.84,191.91 C110.03,191.92 110.22,191.93 110.41,191.94 C111.85,191.98 111.43,191.32 108.72,189.25 ZM 192.23 98.79 C193.22,97.79 194.65,97.31 195.59,97.67 C196.03,97.84 196.34,97.94 196.53,97.93 C197.41,100.17 198.36,103.23 199.19,106.53 C199.05,106.19 198.92,106.00 198.81,106.00 C198.30,106.00 198.23,107.65 198.65,109.75 C199.06,111.81 199.39,118.45 199.40,124.50 C199.41,141.02 197.41,143.20 191.12,133.51 C189.13,130.45 188.37,127.72 187.92,122.00 L 187.33 114.50 L 187.17 121.37 C187.14,122.38 187.13,123.26 187.14,124.04 C186.98,122.27 186.87,120.07 186.74,117.13 L 186.23 105.76 L 189.75 99.84 C190.39,98.77 191.05,97.78 191.66,96.94 C191.14,97.76 190.56,98.78 189.88,100.02 C188.23,103.03 187.70,104.38 188.69,103.02 C189.69,101.66 191.28,99.76 192.23,98.79 ZM 89.17 102.79 C87.62,106.40 86.01,110.83 85.48,113.34 L 85.50 110.50 L 88.67 103.81 C88.83,103.47 89.00,103.13 89.17,102.79 ZM 202.52 166.96 C202.83,166.36 200.87,162.45 198.71,158.77 C200.82,162.21 202.38,164.82 202.57,165.32 C202.85,166.04 202.86,166.58 202.52,166.96 ZM 106.22 80.06 C108.70,78.94 111.72,77.98 114.50,77.56 C118.10,77.01 123.71,76.70 129.17,76.63 C115.98,77.03 111.86,77.63 106.22,80.06 ZM 82.95 150.10 L 82.74 149.95 C82.85,149.48 82.92,140.83 82.88,130.30 L 82.95 150.10 ZM 57.31 117.06 C57.27,118.13 57.23,119.63 57.20,121.58 C57.11,125.85 57.40,130.84 57.85,134.88 C57.15,129.42 56.95,122.80 57.31,117.06 ZM 200.60 133.63 C201.30,129.53 201.67,126.83 201.74,124.27 C201.70,126.99 201.33,129.76 200.58,133.99 C200.01,137.29 199.34,140.36 198.80,142.30 C199.34,140.31 200.02,137.09 200.60,133.63 ZM 169.55 82.98 C169.90,82.70 171.54,80.06 173.34,76.86 L 169.77 83.19 ZM 141.49 76.99 C142.82,77.13 143.87,77.29 144.54,77.49 C145.10,77.65 145.70,77.88 146.31,78.16 C144.94,77.63 143.36,77.25 141.49,76.99 ZM 72.70 167.62 C73.19,168.18 73.71,168.75 74.24,169.32 C77.22,172.51 78.64,174.76 78.05,175.35 C78.64,174.76 77.10,172.40 73.94,169.03 C73.53,168.60 73.12,168.13 72.70,167.62 ZM 100.35 85.57 C100.75,85.02 101.00,84.50 101.00,84.11 C101.00,83.98 101.03,83.84 101.09,83.69 C101.03,83.87 101.00,84.05 101.00,84.24 C101.00,85.09 100.76,85.56 100.35,85.57 ZM 163.94 91.92 C164.77,92.02 166.11,91.30 167.69,89.83 C167.71,89.80 167.73,89.78 167.75,89.76 C166.27,91.32 164.83,92.07 163.94,91.92 ZM 169.82 86.81 C169.66,86.15 168.36,85.99 165.85,86.18 C168.54,85.98 169.80,86.08 169.82,86.81 ZM 139.66 69.77 C141.50,70.41 143.08,71.01 143.83,71.35 C145.11,71.94 147.20,72.34 148.48,72.23 C147.20,72.34 145.11,71.95 143.83,71.37 C143.12,71.05 141.55,70.45 139.66,69.77 ZM 92.55 89.65 C93.17,89.23 93.77,89.02 94.25,89.13 C93.70,89.11 93.12,89.30 92.55,89.65 ZM 98.23 195.30 C98.22,195.31 98.22,195.31 98.21,195.32 C97.82,195.53 94.67,194.42 91.22,192.84 C91.23,192.84 91.24,192.85 91.25,192.85 C94.63,194.40 97.74,195.49 98.23,195.30 ZM 79.00 160.76 C79.00,167.36 79.30,169.69 80.29,170.27 C79.31,169.70 79.00,167.39 79.00,160.97 C79.00,159.33 78.97,157.70 78.91,156.23 C78.97,157.51 79.00,159.00 79.00,160.76 ZM 197.01 76.14 C198.23,73.96 199.00,72.52 199.00,72.41 C199.00,72.57 198.24,73.97 197.01,76.14 ZM 77.96 146.02 C77.22,144.94 76.83,143.59 76.55,141.52 C76.83,143.53 77.24,144.91 77.96,146.02 ZM 194.48 94.34 C194.34,94.31 194.20,94.31 194.05,94.35 C194.18,94.29 194.29,94.26 194.37,94.29 C194.41,94.30 194.44,94.32 194.48,94.34 ZM 109.91 71.58 C109.00,71.87 108.19,72.15 107.57,72.41 C108.18,72.15 108.99,71.87 109.91,71.58 ZM 195.36 142.18 C195.66,142.64 195.92,143.03 196.14,143.35 C195.91,143.03 195.66,142.64 195.36,142.18 Z" fill="rgb(245,89,39)"/>
<path d="M 105.02 199.25 C105.01,198.01 105.45,197.00 106.00,197.00 C107.25,197.00 107.25,198.06 106.00,200.00 C105.22,201.21 105.03,201.07 105.02,199.25 ZM 92.43 197.11 C84.20,193.37 78.80,186.53 81.75,183.59 C82.16,183.18 82.56,179.61 82.64,175.67 C82.72,171.73 82.58,169.04 82.33,169.69 C82.08,170.35 81.22,170.64 80.44,170.34 C79.33,169.91 79.00,167.68 79.00,160.76 C79.00,153.69 78.59,151.06 77.12,148.62 C76.08,146.90 74.22,142.25 72.99,138.29 C71.04,132.03 70.81,129.58 71.25,119.79 C71.71,109.60 72.10,107.72 75.31,100.53 C78.85,92.59 90.38,77.91 94.17,76.53 C95.10,76.19 97.53,74.77 99.58,73.38 C105.39,69.44 112.03,67.21 120.09,66.50 C127.12,65.87 127.36,65.92 124.72,67.37 C123.20,68.22 119.52,69.36 116.56,69.90 C113.60,70.45 109.55,71.58 107.57,72.41 C103.71,74.02 93.00,81.97 93.00,83.22 C93.00,83.64 91.36,84.66 89.35,85.50 C87.34,86.34 85.97,87.30 86.31,87.64 C86.64,87.98 86.27,89.82 85.47,91.73 C84.67,93.65 84.21,95.54 84.46,95.94 C84.71,96.33 83.92,96.58 82.70,96.48 C80.26,96.28 79.04,97.56 79.02,100.34 C79.01,101.36 78.10,103.33 77.00,104.73 C75.85,106.19 75.00,108.78 75.00,110.82 C75.00,112.78 74.48,116.90 73.84,119.98 C72.88,124.65 72.95,126.50 74.29,131.04 C75.18,134.05 76.17,138.63 76.51,141.22 C76.98,144.92 77.75,146.40 80.03,148.02 L 82.95 150.10 L 82.88 130.30 C82.81,112.19 82.99,110.03 84.98,105.00 C86.18,101.98 87.53,99.05 87.97,98.50 C88.41,97.95 89.08,96.03 89.47,94.24 C90.11,91.25 92.80,88.65 94.71,89.20 C96.26,89.64 100.04,86.88 99.37,85.80 C98.96,85.13 99.15,84.97 99.85,85.40 C100.56,85.85 101.00,85.40 101.00,84.24 C101.00,82.95 102.51,81.69 105.75,80.26 C111.69,77.64 115.68,77.03 129.50,76.62 C142.01,76.25 147.31,77.40 151.25,81.34 C152.71,82.80 154.57,84.00 155.38,84.00 C156.19,84.00 157.74,85.12 158.82,86.50 C159.90,87.88 161.29,89.00 161.89,89.00 C162.50,89.00 163.00,89.68 163.00,90.50 C163.00,92.72 165.35,92.32 167.83,89.69 C170.90,86.41 170.57,85.82 165.85,86.18 C161.97,86.48 161.70,86.33 161.57,83.82 C161.41,80.61 158.39,77.00 155.87,77.00 C154.87,77.00 153.31,75.88 152.42,74.52 C151.37,72.91 149.98,72.11 148.48,72.23 C147.20,72.34 145.11,71.94 143.83,71.35 C142.55,70.76 138.80,69.43 135.50,68.39 C130.26,66.74 129.87,66.46 132.47,66.16 C141.14,65.18 158.08,71.82 165.64,79.17 L 169.77 83.19 L 173.34 76.86 L 176.91 70.53 L 174.80 68.28 C173.63,67.05 171.79,65.75 170.70,65.40 C169.61,65.06 166.68,63.49 164.20,61.91 C161.72,60.34 158.07,58.54 156.10,57.90 C154.12,57.27 150.48,55.82 148.00,54.68 C141.95,51.90 123.05,51.72 112.06,54.34 C104.28,56.19 93.40,61.16 87.16,65.70 C81.79,69.61 70.00,81.25 70.00,82.65 C70.00,83.31 68.93,85.12 67.61,86.68 C64.58,90.28 60.69,99.53 58.48,108.40 C56.33,117.02 56.83,134.91 59.44,142.50 C62.98,152.79 68.96,163.73 73.94,169.03 C77.10,172.40 78.64,174.76 78.05,175.35 C76.89,176.51 72.00,173.53 72.00,171.66 C72.00,170.95 70.43,168.97 68.50,167.27 C66.57,165.57 65.00,163.52 65.00,162.74 C65.00,161.95 63.57,159.33 61.82,156.91 C60.07,154.50 58.33,150.95 57.94,149.01 C57.55,147.08 56.52,142.88 55.65,139.68 C54.69,136.14 54.23,131.44 54.48,127.68 C55.83,106.99 56.26,102.02 57.05,97.77 C58.00,92.75 63.32,84.11 67.49,80.83 C68.87,79.74 70.00,78.39 70.00,77.82 C70.00,77.25 71.12,75.91 72.48,74.84 C73.85,73.76 74.92,72.57 74.86,72.19 C74.54,69.95 75.16,68.00 76.20,68.00 C77.54,68.00 84.19,63.74 88.00,60.44 C89.38,59.25 92.97,57.45 96.00,56.43 C99.03,55.42 101.96,54.26 102.52,53.86 C106.56,50.99 113.14,50.18 130.50,50.44 C148.26,50.71 148.59,50.75 155.07,53.79 C158.69,55.49 162.79,57.16 164.20,57.51 C165.61,57.87 168.25,59.70 170.08,61.58 C171.90,63.46 174.21,65.00 175.22,65.00 C176.22,65.00 177.51,66.04 178.09,67.30 C179.09,69.49 179.47,69.57 186.01,68.87 C189.79,68.46 193.78,67.65 194.87,67.07 C198.12,65.33 198.86,65.78 200.08,70.25 C201.04,73.81 200.96,74.96 199.61,77.33 C198.73,78.89 198.00,80.59 198.00,81.12 C198.00,81.65 197.02,83.41 195.82,85.03 L 193.64 87.98 L 195.88 90.37 C197.11,91.69 198.77,95.55 199.57,98.98 C200.37,102.40 201.69,106.15 202.51,107.32 C204.27,109.83 204.60,127.37 203.02,134.24 C202.47,136.58 201.80,139.70 201.52,141.17 C201.23,142.64 199.86,145.20 198.48,146.85 L 195.95 149.85 L 198.48 152.57 C199.86,154.07 201.00,156.07 201.00,157.02 C201.00,157.98 201.64,159.29 202.42,159.94 C204.73,161.85 206.07,166.70 204.62,167.90 C202.85,169.37 188.84,170.92 186.82,169.87 C184.31,168.57 184.00,168.76 184.00,171.55 C184.00,173.51 183.21,174.43 180.60,175.52 C178.61,176.35 176.66,178.14 175.92,179.82 C175.22,181.40 173.38,183.17 171.82,183.76 C170.27,184.35 169.00,185.54 169.00,186.41 C169.00,187.46 168.11,188.00 166.38,188.00 C164.93,188.00 161.22,189.08 158.13,190.39 C155.03,191.71 149.80,193.33 146.50,193.99 C143.20,194.65 139.60,195.52 138.50,195.92 C135.99,196.83 119.75,196.58 118.17,195.61 C117.53,195.21 114.64,194.88 111.75,194.87 C108.86,194.85 105.48,194.19 104.24,193.39 C102.12,192.03 101.91,192.11 100.92,194.70 C99.98,197.19 98.33,198.98 97.00,198.96 C96.72,198.96 94.67,198.13 92.43,197.11 ZM 98.56 173.46 C98.35,161.66 98.40,152.00 98.65,152.00 C98.91,152.00 102.88,153.82 107.48,156.05 C119.04,161.64 125.63,162.75 134.90,160.66 C144.94,158.39 155.30,151.21 161.20,142.42 C163.65,138.77 166.13,136.13 166.96,136.27 C168.49,136.52 170.43,139.19 175.50,148.04 C177.15,150.92 179.74,155.35 181.26,157.89 C182.77,160.42 184.51,163.45 185.11,164.62 C186.02,166.38 187.46,166.86 193.63,167.42 C201.54,168.13 203.48,167.68 202.57,165.32 C202.09,164.06 193.15,149.73 188.09,142.10 C186.40,139.55 184.77,136.89 178.73,126.80 C176.65,123.33 174.43,119.75 173.78,118.83 C172.37,116.82 172.64,116.23 180.93,103.00 C187.47,92.57 199.00,73.05 199.00,72.41 C199.00,72.18 195.29,72.00 190.75,72.00 L 182.50 72.01 L 175.65 84.46 C171.88,91.32 168.21,97.41 167.49,98.01 C166.48,98.85 165.40,98.13 162.84,94.93 C158.14,89.07 149.93,83.47 142.32,80.94 C136.91,79.14 134.18,78.85 126.16,79.21 C117.77,79.59 115.58,80.09 109.50,83.00 C100.50,87.30 92.88,94.91 88.67,103.81 L 85.50 110.50 L 85.22 150.23 L 84.93 189.96 L 91.22 192.84 C94.67,194.42 97.82,195.53 98.21,195.32 C98.61,195.10 98.76,185.27 98.56,173.46 ZM 137.29 193.48 C144.47,192.80 160.27,187.02 166.25,182.89 C172.94,178.28 180.00,171.79 180.00,170.26 C180.00,168.67 174.23,159.00 173.28,159.00 C173.00,159.00 170.17,161.26 166.98,164.01 C159.46,170.53 151.11,175.52 144.11,177.66 C136.04,180.13 119.51,179.92 111.30,177.25 C107.89,176.15 104.85,175.49 104.55,175.79 C104.25,176.09 104.00,179.42 104.00,183.19 C104.00,189.45 104.20,190.13 106.33,190.94 C110.14,192.38 125.30,194.86 128.00,194.48 C129.38,194.28 133.56,193.83 137.29,193.48 ZM 140.44 175.63 C142.34,175.43 143.73,174.54 144.38,173.08 C145.17,171.30 145.95,170.94 148.09,171.37 C149.93,171.74 151.52,171.29 153.05,169.95 C154.29,168.88 156.05,168.00 156.96,168.00 C157.88,168.00 159.62,166.65 160.84,165.01 C162.05,163.36 163.57,162.12 164.20,162.26 C164.83,162.39 166.43,160.59 167.75,158.25 C169.07,155.91 170.79,154.00 171.57,154.00 C173.87,154.00 173.23,151.14 169.88,146.49 C167.98,143.84 166.23,142.36 165.38,142.68 C164.62,142.97 164.00,143.59 164.00,144.05 C164.00,144.50 162.19,146.96 159.99,149.51 C157.78,152.06 156.20,154.52 156.48,154.96 C157.19,156.12 154.29,158.30 153.05,157.53 C152.47,157.17 151.00,157.59 149.78,158.44 C148.56,159.30 146.74,160.00 145.75,160.00 C144.75,160.00 141.27,161.12 138.00,162.50 C129.83,165.94 120.71,165.96 114.31,162.55 C111.24,160.92 108.80,160.29 106.96,160.66 C104.76,161.10 104.06,160.78 103.53,159.10 C103.17,157.95 102.25,157.00 101.50,157.00 C100.47,157.00 100.14,158.81 100.17,164.44 L 100.20 171.88 L 102.61 170.96 C104.44,170.26 106.03,170.58 109.26,172.27 C111.59,173.50 114.84,174.95 116.50,175.51 C119.14,176.40 132.08,176.46 140.44,175.63 ZM 200.58 133.99 C202.00,125.95 202.07,123.20 201.07,116.00 C199.80,106.77 196.12,94.87 194.37,94.29 C193.77,94.09 191.69,96.59 189.75,99.84 L 186.23 105.76 L 186.74 117.13 C187.22,127.90 187.43,128.82 190.76,134.50 C196.70,144.63 197.15,145.25 198.05,144.35 C198.53,143.87 199.67,139.21 200.58,133.99 ZM 183.67 112.25 C182.50,108.71 180.55,107.97 179.70,110.75 C179.40,111.71 178.70,113.98 178.14,115.79 C177.21,118.79 177.38,119.32 180.06,121.71 C181.68,123.15 183.07,125.04 183.15,125.92 C183.23,126.79 183.62,124.80 184.02,121.50 C184.46,117.86 184.32,114.22 183.67,112.25 ZM 117.99 147.13 C113.19,145.55 109.48,143.14 105.98,139.33 C99.99,132.81 99.00,130.14 99.00,120.52 C99.00,110.84 100.83,106.35 107.20,100.41 C113.31,94.71 117.47,93.02 127.03,92.34 C135.33,91.75 136.23,91.88 141.20,94.41 C148.73,98.26 151.75,101.21 154.68,107.62 C159.23,117.56 156.65,128.11 147.20,138.22 C144.66,140.93 140.76,144.07 138.54,145.18 C134.13,147.40 122.25,148.52 117.99,147.13 ZM 137.93 140.85 C143.74,137.76 149.00,132.63 149.00,130.07 C149.00,129.21 150.33,125.69 151.96,122.25 C153.58,118.81 154.57,116.00 154.16,116.00 C153.74,116.00 152.56,113.64 151.54,110.75 C149.34,104.56 143.40,98.49 137.50,96.43 C128.46,93.27 118.73,94.93 112.22,100.75 C110.84,101.99 109.38,103.00 108.99,103.00 C107.90,103.00 102.38,115.95 101.56,120.40 C101.08,123.06 101.32,125.30 102.31,127.40 C103.12,129.11 104.50,132.19 105.37,134.25 C106.44,136.76 107.61,138.00 108.93,138.00 C110.00,138.00 111.59,139.01 112.45,140.25 C114.35,142.97 122.68,145.06 128.50,144.28 C130.70,143.99 134.94,142.44 137.93,140.85 Z" fill="rgb(253,249,243)"/>
</g>
</svg>